<svg width="16" height="16" viewBox="0 0 16 16" fill="none" xmlns="http://www.w3.org/2000/svg">
<path d="M13.5926 7.57338L4.59406 2.0741C4.51827 2.02778 4.4315 2.00248 4.34269 2.00082C4.25388 1.99916 4.16623 2.02118 4.08876 2.06463C4.01128 2.10808 3.94678 2.17139 3.90189 2.24803C3.857 2.32468 3.83333 2.41191 3.83333 2.50073V13.4993C3.83333 13.5881 3.857 13.6754 3.90189 13.752C3.94678 13.8287 4.01128 13.892 4.08876 13.9354C4.16623 13.9789 4.25388 14.0009 4.34269 13.9992C4.4315 13.9976 4.51827 13.9723 4.59406 13.9259L13.5926 8.42666C13.6657 8.38199 13.7261 8.3193 13.768 8.2446C13.8099 8.16989 13.8319 8.08567 13.8319 8.00002C13.8319 7.91437 13.8099 7.83015 13.768 7.75545C13.7261 7.68074 13.6657 7.61805 13.5926 7.57338Z" fill="#1D2026"/>
</svg>
